name Walk7.mot
datacolumns 19
datarows 20
range 2.04500000 2.14000000
endheader

                time	   L_ground_force_vx	   L_ground_force_vy	   L_ground_force_vz	   L_ground_force_px	   L_ground_force_py	   L_ground_force_pz	   R_ground_force_vx	   R_ground_force_vy	   R_ground_force_vz	   R_ground_force_px	   R_ground_force_py	   R_ground_force_pz	   L_ground_torque_x	   L_ground_torque_y	   L_ground_torque_z	   R_ground_torque_x	   R_ground_torque_y	   R_ground_torque_z	
          2.04500000	          0.00000000	          0.00000000	         -0.00000000	         -0.00000000	          0.00000000	         -0.00000000	        -12.34900934	        535.51083099	        -41.75515476	          0.19993765	          0.00000000	          0.09969427	          0.00000000	          0.00000000	          0.00000000	          0.00000000	          1.38842056	          0.00000000	
          2.05000000	          0.00000000	          0.00000000	         -0.00000000	         -0.00000000	          0.00000000	         -0.00000000	        -10.27091081	        527.03622981	        -41.32983015	          0.20216063	          0.00000000	          0.10030262	          0.00000000	          0.00000000	          0.00000000	          0.00000000	          1.33390266	          0.00000000	
          2.05500000	         -0.00000000	         -0.00000000	          0.00000000	          0.00000000	          0.00000000	          0.00000000	         -8.50662631	        519.62424382	        -41.10963574	          0.20479875	          0.00000000	          0.10111289	          0.00000000	         -0.00000000	          0.00000000	          0.00000000	          1.26012357	          0.00000000	
          2.06000000	         -0.00000000	         -0.00000000	          0.00000000	          0.00000000	          0.00000000	          0.00000000	         -6.97062775	        512.79984535	        -41.11663582	          0.20752985	          0.00000000	          0.10178352	          0.00000000	         -0.00000000	          0.00000000	          0.00000000	          1.20179558	          0.00000000	
          2.06500000	         -0.00000000	         -0.00000000	          0.00000000	          0.00000000	          0.00000000	          0.00000000	         -5.67626781	        506.48208633	        -41.33857077	          0.20996080	          0.00000000	          0.10236063	          0.00000000	         -0.00000000	          0.00000000	          0.00000000	          1.19095446	          0.00000000	
          2.07000000	          0.00000000	          0.00000000	         -0.00000000	         -0.00000000	          0.00000000	         -0.00000000	         -4.64442007	        500.72493904	        -41.79212745	          0.21237715	          0.00000000	          0.10297391	          0.00000000	          0.00000000	          0.00000000	          0.00000000	          1.17509602	          0.00000000	
          2.07500000	          0.00000000	          0.00000000	         -0.00000000	         -0.00000000	          0.00000000	         -0.00000000	         -3.69657461	        495.94714670	        -42.21924494	          0.21498768	          0.00000000	          0.10381666	          0.00000000	          0.00000000	          0.00000000	          0.00000000	          1.13210116	          0.00000000	
          2.08000000	         -0.00000000	         -0.00000000	         -0.00000000	         -0.00000000	          0.00000000	         -0.00000000	         -2.72814911	        491.82612139	        -42.35906784	          0.21753477	          0.00000000	          0.10458575	          0.00000000	          0.00000000	          0.00000000	          0.00000000	          1.07638598	          0.00000000	
          2.08500000	         -0.00000000	         -0.00000000	          0.00000000	          0.00000000	          0.00000000	          0.00000000	         -1.74937748	        488.15314929	        -42.31647619	          0.22033286	          0.00000000	          0.10516699	          0.00000000	         -0.00000000	          0.00000000	          0.00000000	          1.03916015	          0.00000000	
          2.09000000	         -0.00000000	         -0.00000000	          0.00000000	          0.00000000	          0.00000000	          0.00000000	         -0.79875602	        485.30108867	        -42.16308266	          0.22289032	          0.00000000	          0.10556506	          0.00000000	         -0.00000000	          0.00000000	          0.00000000	          1.04868233	          0.00000000	
          2.09500000	          0.00000000	          0.00000000	          0.00000000	          0.00000000	          0.00000000	          0.00000000	          0.15120743	        483.48726272	        -41.85883673	          0.22526229	          0.00000000	          0.10582670	          0.00000000	          0.00000000	          0.00000000	          0.00000000	          1.08757147	          0.00000000	
          2.10000000	          0.00000000	          0.00000000	         -0.00000000	         -0.00000000	          0.00000000	         -0.00000000	          1.13753592	        482.46948520	        -41.41633099	          0.22779931	          0.00000000	          0.10603848	          0.00000000	          0.00000000	          0.00000000	          0.00000000	          1.12115466	          0.00000000	
          2.10500000	          0.00000000	          0.00000000	         -0.00000000	         -0.00000000	          0.00000000	         -0.00000000	          2.11161819	        482.08659468	        -40.87833855	          0.23042521	          0.00000000	          0.10636840	          0.00000000	          0.00000000	          0.00000000	          0.00000000	          1.15315059	          0.00000000	
          2.11000000	         -0.00000000	         -0.00000000	          0.00000000	          0.00000000	          0.00000000	          0.00000000	          3.02892413	        482.62574328	        -40.30076611	          0.23290281	          0.00000000	          0.10685882	          0.00000000	         -0.00000000	          0.00000000	          0.00000000	          1.20856381	          0.00000000	
          2.11500000	         -0.00000000	         -0.00000000	          0.00000000	          0.00000000	          0.00000000	          0.00000000	          3.80320755	        484.26154030	        -39.76312559	          0.23538498	          0.00000000	          0.10731474	          0.00000000	         -0.00000000	          0.00000000	          0.00000000	          1.23003010	          0.00000000	
          2.12000000	         -0.00000000	         -0.00000000	          0.00000000	          0.00000000	          0.00000000	          0.00000000	          4.51556940	        486.59894805	        -39.30491374	          0.23790371	          0.00000000	          0.10755142	          0.00000000	         -0.00000000	          0.00000000	          0.00000000	          1.22548055	          0.00000000	
          2.12500000	          0.00000000	          0.00000000	         -0.00000000	         -0.00000000	          0.00000000	         -0.00000000	          5.34563518	        489.29840370	        -38.95530845	          0.24024087	          0.00000000	          0.10751771	          0.00000000	          0.00000000	          0.00000000	          0.00000000	          1.22818099	          0.00000000	
          2.13000000	          0.00000000	          0.00000000	         -0.00000000	         -0.00000000	          0.00000000	         -0.00000000	          6.42918708	        492.74712578	        -38.77101712	          0.24259276	          0.00000000	          0.10762366	          0.00000000	          0.00000000	          0.00000000	          0.00000000	          1.21418473	          0.00000000	
          2.13500000	         -0.00000000	          0.00000000	         -0.00000000	         -0.00000000	          0.00000000	         -0.00000000	          7.63940943	        496.94935827	        -38.82389633	          0.24483399	          0.00000000	          0.10802978	          0.00000000	          0.00000000	          0.00000000	          0.00000000	          1.19309069	          0.00000000	
          2.14000000	         -0.00000000	         -0.00000000	          0.00000000	          0.00000000	          0.00000000	          0.00000000	          8.70193276	        501.53551748	        -39.19879577	          0.24698839	          0.00000000	          0.10843665	          0.00000000	         -0.00000000	          0.00000000	          0.00000000	          1.17213912	          0.00000000	
